<svg width="50" height="37" viewBox="0 0 50 37" fill="none" xmlns="http://www.w3.org/2000/svg">
<path d="M3 15H26V21H3C2.20435 21 1.4413 20.6839 0.878693 20.1213C0.316083 19.5587 0 18.7956 0 18C0 17.2044 0.316083 16.4413 0.878693 15.8787C1.4413 15.3161 2.20435 15 3 15Z" fill="#2084C9"/>
<path d="M3 15H43V21H3V15Z" fill="#2084C9"/>
<path d="M33.0394 0.949487L48.3394 16.1795C48.9066 16.7367 49.2294 17.4962 49.2369 18.2912C49.2444 19.0862 48.936 19.8517 48.3794 20.4195L33.1594 35.7295C32.5985 36.2944 31.8361 36.6133 31.0401 36.6162C30.244 36.619 29.4794 36.3054 28.9144 35.7445C28.3495 35.1836 28.0306 34.4212 28.0278 33.6251C28.025 32.829 28.3385 32.0644 28.8994 31.4995L41.9995 18.2912L28.8094 5.19949C28.5141 4.92553 28.2769 4.59488 28.1121 4.22728C27.9473 3.85968 27.8582 3.46265 27.8502 3.05988C27.8422 2.6571 27.9153 2.25684 28.0653 1.88295C28.2153 1.50907 28.4391 1.16922 28.7233 0.883688C29.0075 0.598156 29.3463 0.372786 29.7194 0.221021C30.0926 0.0692567 30.4925 -0.0057923 30.8953 0.000348599C31.2982 0.0064895 31.6956 0.0936953 32.064 0.256765C32.4323 0.419835 32.7641 0.655425 33.0394 0.949487Z" fill="#2084C9"/>
</svg>
