<svg width="20" height="20" viewBox="0 0 20 20" fill="none" xmlns="http://www.w3.org/2000/svg">
<rect width="20" height="20" fill="#2084C9"/>
<path d="M10.2041 10.4969L13.8571 6.8464C14.0476 6.65601 14.0476 6.34146 13.8571 6.14279C13.6666 5.9524 13.3518 5.9524 13.153 6.14279L9.5 9.80156L5.84699 6.14279C5.65647 5.9524 5.34169 5.9524 5.14289 6.14279C4.95237 6.33318 4.95237 6.64774 5.14289 6.8464L8.7959 10.4969L5.14289 14.1474C4.95237 14.3378 4.95237 14.6523 5.14289 14.851C5.24229 14.9503 5.36654 15 5.4908 15C5.61505 15 5.74758 14.9503 5.8387 14.851L9.5 11.2005L13.153 14.851C13.2524 14.9503 13.3767 15 13.5009 15C13.6252 15 13.7577 14.9503 13.8488 14.851C14.0393 14.6606 14.0393 14.3461 13.8488 14.1474L10.2041 10.4969Z" fill="white"/>
</svg>
