<svg width="45" height="46" viewBox="0 0 45 46" fill="none" xmlns="http://www.w3.org/2000/svg">
<circle cx="22.5" cy="22.7197" r="22.5" fill="#2084C9"/>
<path d="M23.2753 23.0599L29.8903 16.4449C30.2353 16.0999 30.2353 15.5299 29.8903 15.1699C29.5453 14.8249 28.9753 14.8249 28.6153 15.1699L22.0003 21.7999L15.3853 15.1699C15.0403 14.8249 14.4703 14.8249 14.1103 15.1699C13.7653 15.5149 13.7653 16.0849 14.1103 16.4449L20.7253 23.0599L14.1103 29.6749C13.7653 30.0199 13.7653 30.5899 14.1103 30.9499C14.2903 31.1299 14.5153 31.2199 14.7403 31.2199C14.9653 31.2199 15.2053 31.1299 15.3703 30.9499L22.0003 24.3349L28.6153 30.9499C28.7953 31.1299 29.0203 31.2199 29.2453 31.2199C29.4703 31.2199 29.7103 31.1299 29.8753 30.9499C30.2203 30.6049 30.2203 30.0349 29.8753 29.6749L23.2753 23.0599Z" fill="white"/>
</svg>
