<svg width="20" height="20" viewBox="0 0 20 20" fill="none" xmlns="http://www.w3.org/2000/svg">
<rect width="20" height="20" rx="10" fill="#2084C9"/>
<circle cx="10" cy="10" r="5" fill="#2084C9"/>
<path d="M8.03865 14C7.78964 14 7.54058 13.9373 7.3538 13.812C7.22927 13.7493 7.16704 13.6239 7.10478 13.5613L6.10861 12.2451C5.92182 11.9317 5.98408 11.5557 6.23313 11.3677C6.54441 11.1796 6.91799 11.2423 7.10478 11.493L8.03865 12.7465L11.8365 7.29379C12.0233 6.98042 12.4591 6.91774 12.7082 7.10576C13.0195 7.29379 13.0817 7.73253 12.8949 7.9832L9.03482 13.4986C8.78577 13.812 8.41223 14 8.03865 14Z" fill="white"/>
</svg>
